<?xml version="1.0" encoding="utf-8"?>
<!-- Generator: Adobe Illustrator 28.1.0, SVG Export Plug-In . SVG Version: 6.00 Build 0)  -->
<svg version="1.1" id="레이어_1" xmlns="http://www.w3.org/2000/svg" xmlns:xlink="http://www.w3.org/1999/xlink" x="0px"
	 y="0px" viewBox="0 0 133 43" style="enable-background:new 0 0 133 43;" xml:space="preserve">
<style type="text/css">
	.st0{fill:#231815;}
	.st1{fill:#172A88;}
	.st2{fill:#9FA0A0;}
</style>
<g>
	<g>
		<g>
			<path class="st0" d="M38.45,19.97c0-4.78-2.99-8.87-7.2-10.5c0.68-3,0.41-5.42-0.79-7.19c-1.04-1.53-2.43-1.97-2.49-1.99l0,0.01
				c-0.81-0.31-1.75,0-2.19,0.78c-0.49,0.85-0.19,1.94,0.67,2.42c0.85,0.49,1.94,0.19,2.42-0.67c0.02-0.03,0.03-0.07,0.05-0.1
				c0.85,0.99,1.64,2.86,0.9,6.29c-0.39-0.09-0.8-0.17-1.21-0.22c-0.9-3.01-2.33-5.02-4.28-5.97c-1.66-0.82-3.08-0.51-3.14-0.5
				l0,0.01c-0.86,0.13-1.52,0.86-1.52,1.76c0,0.98,0.8,1.78,1.78,1.78s1.78-0.8,1.78-1.78c0-0.04,0-0.08-0.01-0.11
				c1.19,0.43,2.74,1.61,3.79,4.73c-2.99,0.04-6.23,1.15-8.7,2.98c-2.82,2.09-4.37,4.85-4.37,7.78c0,2.06,0.79,4.17,2.24,6.06
				c-1.99,0.32-3.3,1.27-3.4,1.34c-0.27,0.19-2.65,1.9-1.98,3.8c0.01,0.04,0.3,0.91,1.15,1.3c0.04,0.02,0.07,0.03,0.11,0.05
				c0.24,0.1,0.5,0.14,0.77,0.14c0.26,0,0.53-0.05,0.81-0.13v7.8c0,0.47,0.38,0.86,0.86,0.86h9.95c0.01,0.21,0.05,0.43,0.13,0.66
				c0.44,1.21,1.5,1.39,2.1,1.39c0.48,0,0.86-0.11,1.04-0.17c5.7-1.81,6.05-7.06,6.06-7.28c0.03-0.33,0.23-3.25-1.66-3.95
				c-0.04-0.01-0.89-0.34-1.73,0.06v-0.63C35.05,29.38,38.45,25.07,38.45,19.97z M19.17,12.84c2.28-1.69,5.28-2.7,8.02-2.7
				c5.42,0,9.83,4.41,9.83,9.83c0,5.15-3.99,9.39-9.04,9.8h-1.56c-0.92-0.08-1.87-0.29-2.8-0.61c0.06-0.94-0.59-1.7-1.15-2.11
				c1-0.69,1.47-1.73,1.59-2.44c0.07-0.39-0.19-0.75-0.58-0.82c-0.39-0.07-0.76,0.19-0.83,0.58c-0.03,0.18-0.31,1.41-1.69,1.83
				c-1.06-0.48-2.08-0.7-3.01-0.76c-1.66-1.82-2.59-3.93-2.59-5.97C15.38,17.01,16.73,14.65,19.17,12.84z M12.48,30.99
				c-0.44-0.17-0.62-0.67-0.62-0.68c-0.34-0.96,1.05-2.18,1.56-2.53c0.01-0.01,0.02-0.01,0.03-0.02c0.09-0.07,1.66-1.25,4-1.25
				c0.94,0,2,0.19,3.13,0.72h0c0.37,0.17,0.74,0.38,1.1,0.61c0.13,0.08,1.23,0.78,0.69,1.7c-0.05,0.09-0.11,0.17-0.17,0.23h-1.43
				c-0.1-0.04-0.17-0.09-0.22-0.12c-0.08-0.05-1.99-1.22-4.32-1.31c-0.15-0.01-0.29,0.05-0.4,0.15c-0.11,0.1-0.17,0.24-0.18,0.38
				c-0.01,0.15,0.05,0.29,0.15,0.4c0.1,0.11,0.24,0.17,0.38,0.18c0.13,0.01,0.27,0.02,0.41,0.03c-1.54,0.48-2.5,1.11-2.71,1.25
				C13.3,31.04,12.83,31.12,12.48,30.99z M23.82,37.21c-0.15,0.01-0.3-0.06-0.4-0.17l-1.25-1.46l-1.02,1.54
				c-0.09,0.13-0.23,0.21-0.39,0.22c-0.16,0.01-0.31-0.06-0.41-0.18l-1.2-1.48l-1.55,2.08c-0.1,0.13-0.25,0.2-0.4,0.2
				c-0.1,0-0.21-0.03-0.3-0.1c-0.22-0.17-0.27-0.48-0.1-0.7l1.94-2.59c0.09-0.12,0.24-0.2,0.39-0.2c0.16,0,0.3,0.07,0.4,0.18
				l1.18,1.45l1.01-1.52c0.09-0.13,0.23-0.21,0.39-0.22c0.16-0.01,0.31,0.06,0.41,0.17l1.26,1.47l2-2.85
				c0.16-0.23,0.47-0.28,0.7-0.12c0.23,0.16,0.28,0.47,0.12,0.7l-2.37,3.38C24.12,37.12,23.97,37.2,23.82,37.21z M30.82,32.42
				c0.41-0.23,0.91-0.05,0.92-0.05c0.95,0.35,1.01,2.2,0.95,2.82l0,0.03c-0.01,0.19-0.22,4.67-5.31,6.29
				c-0.06,0.02-1.37,0.47-1.75-0.55c-0.09-0.25-0.09-0.47,0.01-0.67c0.21-0.44,0.86-0.74,1.07-0.81c0.09-0.03,2.2-0.75,3.77-2.49
				c0.1-0.11,0.15-0.25,0.14-0.4c-0.01-0.15-0.07-0.28-0.18-0.38c-0.1-0.09-0.23-0.14-0.37-0.14c-0.16,0-0.31,0.07-0.41,0.18
				c-0.09,0.1-0.18,0.2-0.28,0.29c0.61-1.49,0.74-2.63,0.76-2.89C30.25,33.02,30.49,32.61,30.82,32.42z"/>
			<path class="st0" d="M27.97,16.77c-1.53,0-2.78,1.24-2.78,2.78c0,1.54,1.24,2.78,2.78,2.78c1.54,0,2.78-1.24,2.78-2.78
				C30.75,18.01,29.51,16.77,27.97,16.77z M27.41,19.21c-0.4,0-0.72-0.32-0.72-0.72c0-0.4,0.32-0.72,0.72-0.72
				c0.4,0,0.72,0.32,0.72,0.72C28.14,18.89,27.81,19.21,27.41,19.21z"/>
		</g>
	</g>
	<g>
		<path class="st1" d="M85.94,3.36H72.98c-1.37,0-2.49,1.11-2.49,2.49c0,0.01,0,0.01,0,0.02c0,0,0,0.01,0,0.01v16.21
			c0,1.21,0.87,2.25,2.07,2.45c0.11,0.02,1.05,0.17,2.54,0.17c2.78,0,7.44-0.54,12-3.5c0.08-0.05,0.15-0.12,0.22-0.18
			c0.02-0.02,0.04-0.04,0.07-0.06c0.04-0.03,0.08-0.06,0.11-0.09c0.56-0.46,0.93-1.14,0.93-1.92V5.85
			C88.43,4.48,87.31,3.36,85.94,3.36z M75.47,8.34h7.98v9.25c-3.04,1.69-6.05,2.09-7.98,2.14V8.34z"/>
		<path class="st1" d="M93.18,2.27c-1.37,0-2.49,1.11-2.49,2.49v19.42c0,1.37,1.11,2.49,2.49,2.49s2.49-1.11,2.49-2.49V4.76
			C95.66,3.38,94.55,2.27,93.18,2.27z"/>
		<path class="st1" d="M65.29,2.27c-1.37,0-2.49,1.11-2.49,2.49v5.76h-1.76V4.76c0-1.37-1.11-2.49-2.49-2.49s-2.49,1.11-2.49,2.49
			v19.42c0,1.37,1.11,2.49,2.49,2.49s2.49-1.11,2.49-2.49v-8.68h1.76v8.68c0,1.37,1.11,2.49,2.49,2.49c1.37,0,2.49-1.11,2.49-2.49
			V4.76C67.78,3.38,66.67,2.27,65.29,2.27z"/>
		<path class="st1" d="M51.43,3.36h-8.65c-1.37,0-2.49,1.11-2.49,2.49s1.11,2.49,2.49,2.49h6.09c-0.29,3.7-1.56,10.58-7.06,12.19
			c-1.32,0.39-2.07,1.77-1.68,3.09c0.32,1.08,1.31,1.79,2.39,1.79c0.23,0,0.47-0.03,0.7-0.1C54.53,21.98,53.94,6.4,53.91,5.74
			C53.85,4.41,52.76,3.36,51.43,3.36z"/>
		<path class="st1" d="M120.59,21.69h-7.5v-2.22h6.49c1.37,0,2.49-1.11,2.49-2.49c0-1.37-1.11-2.49-2.49-2.49h-15.65V7.25h15.65
			c1.37,0,2.49-1.11,2.49-2.49s-1.11-2.49-2.49-2.49h-18.14c-1.37,0-2.49,1.11-2.49,2.49v12.21c0,1.37,1.11,2.49,2.49,2.49
			c0,0,0,0,0.01,0h6.66v2.22h-7.68c-1.37,0-2.49,1.11-2.49,2.49c0,1.37,1.11,2.49,2.49,2.49h20.16c1.37,0,2.49-1.11,2.49-2.49
			C123.08,22.8,121.96,21.69,120.59,21.69z"/>
		<path class="st1" d="M119.58,8.26h-9.89c-1.37,0-2.49,1.11-2.49,2.49s1.11,2.49,2.49,2.49h9.89c1.37,0,2.49-1.11,2.49-2.49
			S120.95,8.26,119.58,8.26z"/>
		<path class="st1" d="M119.58,28.13h-18.14c-1.37,0-2.49,1.11-2.49,2.49c0,1.37,1.11,2.49,2.49,2.49h15.65v4.5
			c0,1.37,1.11,2.49,2.49,2.49c1.37,0,2.49-1.11,2.49-2.49v-6.99C122.07,29.24,120.95,28.13,119.58,28.13z"/>
	</g>
	<g>
		<path class="st2" d="M43.11,37.62v-1.33h0.9v1.33h2.85v0.74h-6.61v-0.74H43.11z M46.36,31.84V36h-5.6v-4.16H46.36z M41.67,35.27
			h3.79v-2.7h-3.79V35.27z"/>
		<path class="st2" d="M52.16,38.18c-0.37,0.04-0.77,0.07-1.2,0.1c-0.43,0.03-0.86,0.05-1.29,0.07c-0.44,0.02-0.87,0.03-1.3,0.04
			c-0.43,0.01-0.84,0.01-1.22,0.01l-0.12-0.73c0.38,0,0.78-0.01,1.21-0.02c0.43-0.01,0.86-0.02,1.3-0.04
			c0.44-0.01,0.87-0.03,1.3-0.06c0.43-0.02,0.83-0.05,1.21-0.09L52.16,38.18z M51.48,34.49c0,0.65-0.17,1.12-0.5,1.42
			c-0.33,0.3-0.82,0.45-1.47,0.45c-0.65,0-1.14-0.15-1.48-0.45c-0.33-0.3-0.5-0.77-0.5-1.42v-0.85c0-0.65,0.17-1.12,0.5-1.42
			c0.33-0.3,0.82-0.45,1.48-0.45c0.65,0,1.14,0.15,1.47,0.45c0.33,0.3,0.5,0.77,0.5,1.42V34.49z M50.58,33.61
			c0-0.21-0.03-0.39-0.08-0.53c-0.05-0.14-0.12-0.26-0.22-0.34c-0.09-0.08-0.21-0.15-0.33-0.18c-0.13-0.04-0.27-0.05-0.43-0.05
			c-0.16,0-0.31,0.02-0.44,0.05c-0.13,0.04-0.24,0.1-0.34,0.18c-0.09,0.09-0.17,0.2-0.22,0.34c-0.05,0.14-0.08,0.32-0.08,0.53v0.91
			c0,0.21,0.03,0.39,0.08,0.53c0.05,0.14,0.12,0.25,0.22,0.34c0.09,0.08,0.21,0.15,0.34,0.18c0.13,0.04,0.28,0.05,0.44,0.05
			c0.16,0,0.3-0.02,0.43-0.05c0.13-0.04,0.24-0.1,0.33-0.18c0.09-0.08,0.17-0.2,0.22-0.34c0.05-0.14,0.08-0.32,0.08-0.53V33.61z
			 M52.39,31.74h0.9v6.75h-0.9V31.74z"/>
		<path class="st2" d="M53.8,36.88v-0.74h6.59v0.74h-2.86v1.73h-0.9v-1.73H53.8z M54.31,31.84h5.62v0.74h-4.72v0.74h4.58v0.74h-4.58
			v0.7h4.77v0.73h-5.67V31.84z"/>
		<path class="st2" d="M64.29,38.35c-0.33-0.22-0.63-0.48-0.92-0.79c-0.29-0.31-0.53-0.66-0.71-1.03c-0.19,0.38-0.44,0.74-0.74,1.07
			c-0.3,0.33-0.62,0.61-0.95,0.83l-0.53-0.6c0.56-0.35,0.99-0.78,1.31-1.28c0.31-0.5,0.47-1.06,0.47-1.68v-2.28h-1.44v-0.74h3.8
			v0.74h-1.44v2.28c0,0.63,0.14,1.18,0.43,1.65c0.29,0.47,0.71,0.88,1.27,1.23L64.29,38.35z M67.36,35.14h-1.03v3.36h-0.9v-6.75h0.9
			v2.65h1.03V35.14z"/>
		<path class="st2" d="M72.74,33.46c0,0.64-0.07,1.2-0.22,1.7c-0.15,0.5-0.35,0.95-0.62,1.34c-0.27,0.4-0.6,0.74-0.98,1.05
			c-0.38,0.3-0.82,0.57-1.3,0.8l-0.44-0.65c0.28-0.14,0.55-0.29,0.8-0.47c0.26-0.18,0.49-0.38,0.7-0.6c0.21-0.22,0.4-0.47,0.56-0.74
			c0.16-0.27,0.29-0.56,0.39-0.89h-2.27v-0.74h2.43c0.01-0.1,0.02-0.2,0.03-0.3c0.01-0.1,0.01-0.21,0.01-0.31v-1.09h-2.39v-0.74
			h3.31V33.46z M75.44,31.74v6.75h-0.9v-3.36h-1.47V34.4h1.47v-2.65H75.44z"/>
		<path class="st2" d="M75.95,36.88v-0.74h6.59v0.74H81.1v1.73h-0.9v-1.73h-1.89v1.73h-0.9v-1.73H75.95z M82.06,31.84v3.58h-5.6
			v-3.58H82.06z M77.37,34.69h3.79v-2.11h-3.79V34.69z"/>
		<path class="st2" d="M87.04,37.64v0.73h-4.01v-6.53h0.9v5.8H87.04z M88.09,31.74h0.9v6.75h-0.9V31.74z"/>
		<path class="st2" d="M89.8,31.84h3.82v0.74H90.7v2.11h2.78v0.74H90.7v2.21h3.07v0.73H89.8V31.84z M94.87,31.74h0.9v6.75h-0.9
			V31.74z"/>
	</g>
</g>
</svg>
